<svg xmlns="http://www.w3.org/2000/svg" viewBox="0 0 1420 1230" width="1420" height="1230">
<defs>
  <marker id="data" viewBox="0 0 10 10" refX="9" refY="5" markerWidth="7" markerHeight="7" orient="auto-start-reverse">
    <path d="M0 0L10 5L0 10z" fill="#374151"/></marker>
  <marker id="ctrl" viewBox="0 0 10 10" refX="9" refY="5" markerWidth="7" markerHeight="7" orient="auto-start-reverse">
    <path d="M0 0L10 5L0 10z" fill="#017CEE"/></marker>
  <marker id="offline" viewBox="0 0 10 10" refX="9" refY="5" markerWidth="7" markerHeight="7" orient="auto-start-reverse">
    <path d="M0 0L10 5L0 10z" fill="#6b7280"/></marker>
  <marker id="model" viewBox="0 0 10 10" refX="9" refY="5" markerWidth="7" markerHeight="7" orient="auto-start-reverse">
    <path d="M0 0L10 5L0 10z" fill="#c2410c"/></marker>
</defs>
<rect width="1420" height="1230" rx="20" fill="#f8fafc"/>
<rect x="200" y="60" width="830" height="1072" rx="18" fill="#eef2ff" stroke="#4f46e5" stroke-width="1.5"/>
<text x="218" y="86" font-family="Inter, 'Segoe UI', Helvetica, Arial, sans-serif" font-size="13" font-weight="700" fill="#4f46e5" text-anchor="start">Pipeline Copilot  ·  Docker container on the Oracle Cloud VM</text>
<rect x="1060" y="60" width="340" height="180" rx="18" fill="#fff7ed" stroke="#c2410c" stroke-width="1.5"/>
<text x="1078" y="86" font-family="Inter, 'Segoe UI', Helvetica, Arial, sans-serif" font-size="13" font-weight="700" fill="#c2410c" text-anchor="start">Model API</text>
<rect x="1060" y="260" width="340" height="180" rx="18" fill="#fefce8" stroke="#a16207" stroke-width="1.5"/>
<text x="1078" y="286" font-family="Inter, 'Segoe UI', Helvetica, Arial, sans-serif" font-size="13" font-weight="700" fill="#a16207" text-anchor="start">Weather-seismic pipeline (same VM)</text>
<rect x="1060" y="460" width="340" height="472" rx="18" fill="#f5f3ff" stroke="#6d28d9" stroke-width="1.5"/>
<text x="1078" y="486" font-family="Inter, 'Segoe UI', Helvetica, Arial, sans-serif" font-size="13" font-weight="700" fill="#6d28d9" text-anchor="start">AWS  (us-west-2)</text>
<text x="28" y="104" font-family="Inter, 'Segoe UI', Helvetica, Arial, sans-serif" font-size="10.5" font-weight="700" fill="#6b7280" text-anchor="start">USER</text>
<rect x="20" y="116" width="160" height="110" rx="12" fill="#ffffff" stroke="#e5e7eb" stroke-width="1.6"/>
<g transform="translate(34,130) scale(1.0833333333333333)"><circle cx="12" cy="12" r="10" fill="#e0f2fe" stroke="#0284c7" stroke-width="1.8"/><ellipse cx="12" cy="12" rx="4.5" ry="10" fill="none" stroke="#0284c7" stroke-width="1.5"/><line x1="2" y1="12" x2="22" y2="12" stroke="#0284c7" stroke-width="1.5"/></g>
<text x="34" y="178" font-family="Inter, 'Segoe UI', Helvetica, Arial, sans-serif" font-size="14" font-weight="700" fill="#1f2937" text-anchor="start">You</text>
<text x="34" y="196" font-family="Inter, 'Segoe UI', Helvetica, Arial, sans-serif" font-size="11.5" font-weight="400" fill="#6b7280" text-anchor="start">ask in the browser,</text>
<text x="34" y="212" font-family="Inter, 'Segoe UI', Helvetica, Arial, sans-serif" font-size="11.5" font-weight="400" fill="#6b7280" text-anchor="start">read the diagnosis</text>
<line x1="215" y1="100" x2="1015" y2="100" stroke="#d1d5db" stroke-dasharray="3 5"/>
<text x="219" y="118" font-family="Inter, 'Segoe UI', Helvetica, Arial, sans-serif" font-size="10.5" font-weight="700" fill="#6b7280" text-anchor="start">FRONTEND  ·  REACT WEB UI</text>
<rect x="235" y="132" width="775" height="110" rx="12" fill="#ffffff" stroke="#e5e7eb" stroke-width="1.6"/>
<g transform="translate(249,146) scale(1.0833333333333333)"><path fill="#61DAFB" d="M14.23 12.004a2.236 2.236 0 0 1-2.235 2.236 2.236 2.236 0 0 1-2.236-2.236 2.236 2.236 0 0 1 2.235-2.236 2.236 2.236 0 0 1 2.236 2.236zm2.648-10.69c-1.346 0-3.107.96-4.888 2.622-1.78-1.653-3.542-2.602-4.887-2.602-.41 0-.783.093-1.106.278-1.375.793-1.683 3.264-.973 6.365C1.98 8.917 0 10.42 0 12.004c0 1.59 1.99 3.097 5.043 4.03-.704 3.113-.39 5.588.988 6.38.32.187.69.275 1.102.275 1.345 0 3.107-.96 4.888-2.624 1.78 1.654 3.542 2.603 4.887 2.603.41 0 .783-.09 1.106-.275 1.374-.792 1.683-3.263.973-6.365C22.02 15.096 24 13.59 24 12.004c0-1.59-1.99-3.097-5.043-4.032.704-3.11.39-5.587-.988-6.38-.318-.184-.688-.277-1.092-.278zm-.005 1.09v.006c.225 0 .406.044.558.127.666.382.955 1.835.73 3.704-.054.46-.142.945-.25 1.44-.96-.236-2.006-.417-3.107-.534-.66-.905-1.345-1.727-2.035-2.447 1.592-1.48 3.087-2.292 4.105-2.295zm-9.77.02c1.012 0 2.514.808 4.11 2.28-.686.72-1.37 1.537-2.02 2.442-1.107.117-2.154.298-3.113.538-.112-.49-.195-.964-.254-1.42-.23-1.868.054-3.32.714-3.707.19-.09.4-.127.563-.132zm4.882 3.05c.455.468.91.992 1.36 1.564-.44-.02-.89-.034-1.345-.034-.46 0-.915.01-1.36.034.44-.572.895-1.096 1.345-1.565zM12 8.1c.74 0 1.477.034 2.202.093.406.582.802 1.203 1.183 1.86.372.64.71 1.29 1.018 1.946-.308.655-.646 1.31-1.013 1.95-.38.66-.773 1.288-1.18 1.87-.728.063-1.466.098-2.21.098-.74 0-1.477-.035-2.202-.093-.406-.582-.802-1.204-1.183-1.86-.372-.64-.71-1.29-1.018-1.946.303-.657.646-1.313 1.013-1.954.38-.66.773-1.286 1.18-1.868.728-.064 1.466-.098 2.21-.098zm-3.635.254c-.24.377-.48.763-.704 1.16-.225.39-.435.782-.635 1.174-.265-.656-.49-1.31-.676-1.947.64-.15 1.315-.283 2.015-.386zm7.26 0c.695.103 1.365.23 2.006.387-.18.632-.405 1.282-.66 1.933-.2-.39-.41-.783-.64-1.174-.225-.392-.465-.774-.705-1.146zm3.063.675c.484.15.944.317 1.375.498 1.732.74 2.852 1.708 2.852 2.476-.005.768-1.125 1.74-2.857 2.475-.42.18-.88.342-1.355.493-.28-.958-.646-1.956-1.1-2.98.45-1.017.81-2.01 1.085-2.964zm-13.395.004c.278.96.645 1.957 1.1 2.98-.45 1.017-.812 2.01-1.086 2.964-.484-.15-.944-.318-1.37-.5-1.732-.737-2.852-1.706-2.852-2.474 0-.768 1.12-1.742 2.852-2.476.42-.18.88-.342 1.356-.494zm11.678 4.28c.265.657.49 1.312.676 1.948-.64.157-1.316.29-2.016.39.24-.375.48-.762.705-1.158.225-.39.435-.788.636-1.18zm-9.945.02c.2.392.41.783.64 1.175.23.39.465.772.705 1.143-.695-.102-1.365-.23-2.006-.386.18-.63.406-1.282.66-1.933zM17.92 16.32c.112.493.2.968.254 1.423.23 1.868-.054 3.32-.714 3.708-.147.09-.338.128-.563.128-1.012 0-2.514-.807-4.11-2.28.686-.72 1.37-1.536 2.02-2.44 1.107-.118 2.154-.3 3.113-.54zm-11.83.01c.96.234 2.006.415 3.107.532.66.905 1.345 1.727 2.035 2.446-1.595 1.483-3.092 2.295-4.11 2.295-.22-.005-.406-.05-.553-.132-.666-.38-.955-1.834-.73-3.703.054-.46.142-.944.25-1.438zm4.56.64c.44.02.89.034 1.345.034.46 0 .915-.01 1.36-.034-.44.572-.895 1.095-1.345 1.565-.455-.47-.91-.993-1.36-1.565z"/></g>
<g transform="translate(283,146) scale(1.0833333333333333)"><path fill="#009688" d="M12 .0387C5.3729.0384.0003 5.3931 0 11.9988c-.001 6.6066 5.372 11.9628 12 11.9625 6.628.0003 12.001-5.3559 12-11.9625-.0003-6.6057-5.3729-11.9604-12-11.96m-.829 5.4153h7.55l-7.5805 5.3284h5.1828L5.279 18.5436q2.9466-6.5444 5.892-13.0896"/></g>
<text x="249" y="194" font-family="Inter, 'Segoe UI', Helvetica, Arial, sans-serif" font-size="14" font-weight="700" fill="#1f2937" text-anchor="start">Web UI</text>
<text x="249" y="212" font-family="Inter, 'Segoe UI', Helvetica, Arial, sans-serif" font-size="11.5" font-weight="400" fill="#6b7280" text-anchor="start">React (Vite) chat: ask a question, watch each tool step live, read the diagnosis card</text>
<text x="249" y="228" font-family="Inter, 'Segoe UI', Helvetica, Arial, sans-serif" font-size="11.5" font-weight="400" fill="#6b7280" text-anchor="start">FastAPI streams every step to the browser over Server-Sent Events</text>
<rect x="235" y="268" width="775" height="94" rx="12" fill="#ffffff" stroke="#e5e7eb" stroke-width="1.6"/>
<g transform="translate(249,282) scale(1.0833333333333333)"><path fill="#3776AB" d="M14.25.18l.9.2.73.26.59.3.45.32.34.34.25.34.16.33.1.3.04.26.02.2-.01.13V8.5l-.05.63-.13.55-.21.46-.26.38-.3.31-.33.25-.35.19-.35.14-.33.1-.3.07-.26.04-.21.02H8.77l-.69.05-.59.14-.5.22-.41.27-.33.32-.27.35-.2.36-.15.37-.1.35-.07.32-.04.27-.02.21v3.06H3.17l-.21-.03-.28-.07-.32-.12-.35-.18-.36-.26-.36-.36-.35-.46-.32-.59-.28-.73-.21-.88-.14-1.05-.05-1.23.06-1.22.16-1.04.24-.87.32-.71.36-.57.4-.44.42-.33.42-.24.4-.16.36-.1.32-.05.24-.01h.16l.06.01h8.16v-.83H6.18l-.01-2.75-.02-.37.05-.34.11-.31.17-.28.25-.26.31-.23.38-.2.44-.18.51-.15.58-.12.64-.1.71-.06.77-.04.84-.02 1.27.05zm-6.3 1.98l-.23.33-.08.41.08.41.23.34.33.22.41.09.41-.09.33-.22.23-.34.08-.41-.08-.41-.23-.33-.33-.22-.41-.09-.41.09zm13.09 3.95l.28.06.32.12.35.18.36.27.36.35.35.47.32.59.28.73.21.88.14 1.04.05 1.23-.06 1.23-.16 1.04-.24.86-.32.71-.36.57-.4.45-.42.33-.42.24-.4.16-.36.09-.32.05-.24.02-.16-.01h-8.22v.82h5.84l.01 2.76.02.36-.05.34-.11.31-.17.29-.25.25-.31.24-.38.2-.44.17-.51.15-.58.13-.64.09-.71.07-.77.04-.84.01-1.27-.04-1.07-.14-.9-.2-.73-.25-.59-.3-.45-.33-.34-.34-.25-.34-.16-.33-.1-.3-.04-.25-.02-.2.01-.13v-5.34l.05-.64.13-.54.21-.46.26-.38.3-.32.33-.24.35-.2.35-.14.33-.1.3-.06.26-.04.21-.02.13-.01h5.84l.69-.05.59-.14.5-.21.41-.28.33-.32.27-.35.2-.36.15-.36.1-.35.07-.32.04-.28.02-.21V6.07h2.09l.14.01zm-6.47 14.25l-.23.33-.08.41.08.41.23.33.33.23.41.08.41-.08.33-.23.23-.33.08-.41-.08-.41-.23-.33-.33-.23-.41-.08-.41.08z"/></g>
<g transform="translate(283,282) scale(1.0833333333333333)"><circle cx="5" cy="12" r="3.2" fill="#4f46e5"/><circle cx="19" cy="5" r="3.2" fill="#0ea5e9"/><circle cx="19" cy="19" r="3.2" fill="#0ea5e9"/><path d="M8 11L16 6M8 13l8 5" stroke="#6366f1" stroke-width="1.8" fill="none"/></g>
<text x="249" y="330" font-family="Inter, 'Segoe UI', Helvetica, Arial, sans-serif" font-size="14" font-weight="700" fill="#1f2937" text-anchor="start">Agent runtime + health monitor</text>
<text x="249" y="348" font-family="Inter, 'Segoe UI', Helvetica, Arial, sans-serif" font-size="11.5" font-weight="400" fill="#6b7280" text-anchor="start">runtime.py: starts the MCP servers and memory; the monitor runs free checks every 30 min and investigates + alerts only on a new failure</text>
<polyline points="180,170 233,170" fill="none" stroke="#374151" stroke-width="2" stroke-linejoin="round" marker-end="url(#data)"/>
<polyline points="622,240 622,266" fill="none" stroke="#374151" stroke-width="2" stroke-linejoin="round" marker-end="url(#data)"/>
<line x1="215" y1="384" x2="1015" y2="384" stroke="#d1d5db" stroke-dasharray="3 5"/>
<text x="219" y="402" font-family="Inter, 'Segoe UI', Helvetica, Arial, sans-serif" font-size="10.5" font-weight="700" fill="#6b7280" text-anchor="start">AGENT  ·  LANGGRAPH STATE GRAPH, NODES RUN ① → ⑤</text>
<rect x="235" y="420" width="160" height="126" rx="12" fill="#ffffff" stroke="#e5e7eb" stroke-width="1.6"/>
<g transform="translate(249,434) scale(1.0833333333333333)"><path d="M12 2l8 3.2v6.1c0 5-3.4 9-8 10.7C7.4 20.3 4 16.3 4 11.3V5.2z" fill="#059669"/><path d="M8.3 12.2l2.6 2.6 4.9-5.3" fill="none" stroke="#fff" stroke-width="2" stroke-linecap="round" stroke-linejoin="round"/></g>
<text x="249" y="482" font-family="Inter, 'Segoe UI', Helvetica, Arial, sans-serif" font-size="14" font-weight="700" fill="#017CEE" text-anchor="start">①</text>
<text x="269" y="482" font-family="Inter, 'Segoe UI', Helvetica, Arial, sans-serif" font-size="14" font-weight="700" fill="#1f2937" text-anchor="start">Input guardrail</text>
<text x="249" y="500" font-family="Inter, 'Segoe UI', Helvetica, Arial, sans-serif" font-size="11.5" font-weight="400" fill="#6b7280" text-anchor="start">Haiku sorts: question,</text>
<text x="249" y="516" font-family="Inter, 'Segoe UI', Helvetica, Arial, sans-serif" font-size="11.5" font-weight="400" fill="#6b7280" text-anchor="start">incident, off-topic,</text>
<text x="249" y="532" font-family="Inter, 'Segoe UI', Helvetica, Arial, sans-serif" font-size="11.5" font-weight="400" fill="#6b7280" text-anchor="start">unsafe (refused)</text>
<rect x="415" y="420" width="170" height="126" rx="12" fill="#ffffff" stroke="#a5b4fc" stroke-width="1.6"/>
<g transform="translate(429,434) scale(1.0833333333333333)"><circle cx="5" cy="6" r="3" fill="#4f46e5"/><circle cx="19" cy="6" r="3" fill="#4f46e5"/><circle cx="12" cy="18" r="3.4" fill="#0ea5e9"/><path d="M7.5 7.5l3.4 7.8M16.5 7.5l-3.4 7.8M8 6h8" stroke="#6366f1" stroke-width="1.8" fill="none"/></g>
<text x="429" y="482" font-family="Inter, 'Segoe UI', Helvetica, Arial, sans-serif" font-size="14" font-weight="700" fill="#017CEE" text-anchor="start">②</text>
<text x="449" y="482" font-family="Inter, 'Segoe UI', Helvetica, Arial, sans-serif" font-size="14" font-weight="700" fill="#1f2937" text-anchor="start">Agent ⇄ tools</text>
<text x="429" y="500" font-family="Inter, 'Segoe UI', Helvetica, Arial, sans-serif" font-size="11.5" font-weight="400" fill="#6b7280" text-anchor="start">Opus investigates and</text>
<text x="429" y="516" font-family="Inter, 'Segoe UI', Helvetica, Arial, sans-serif" font-size="11.5" font-weight="400" fill="#6b7280" text-anchor="start">picks each next tool;</text>
<text x="429" y="532" font-family="Inter, 'Segoe UI', Helvetica, Arial, sans-serif" font-size="11.5" font-weight="400" fill="#6b7280" text-anchor="start">prompt caching</text>
<rect x="605" y="420" width="120" height="124" rx="12" fill="#ffffff" stroke="#e5e7eb" stroke-width="1.6"/>
<g transform="translate(619,434) scale(1.0833333333333333)"><rect x="4" y="2" width="16" height="20" rx="2.5" fill="#4f46e5"/><rect x="7.5" y="7" width="9" height="2" rx="1" fill="#fff"/><rect x="7.5" y="11" width="9" height="2" rx="1" fill="#fff"/><rect x="7.5" y="15" width="5.5" height="2" rx="1" fill="#fff"/></g>
<text x="619" y="482" font-family="Inter, 'Segoe UI', Helvetica, Arial, sans-serif" font-size="14" font-weight="700" fill="#017CEE" text-anchor="start">③</text>
<text x="639" y="482" font-family="Inter, 'Segoe UI', Helvetica, Arial, sans-serif" font-size="14" font-weight="700" fill="#1f2937" text-anchor="start">Diagnose</text>
<text x="619" y="500" font-family="Inter, 'Segoe UI', Helvetica, Arial, sans-serif" font-size="11.5" font-weight="400" fill="#6b7280" text-anchor="start">typed Diagnosis</text>
<text x="619" y="516" font-family="Inter, 'Segoe UI', Helvetica, Arial, sans-serif" font-size="11.5" font-weight="400" fill="#6b7280" text-anchor="start">(incidents only)</text>
<rect x="745" y="420" width="130" height="126" rx="12" fill="#ffffff" stroke="#e5e7eb" stroke-width="1.6"/>
<g transform="translate(759,434) scale(1.0833333333333333)"><circle cx="12" cy="12" r="10" fill="#059669"/><path d="M7 12.4l3.4 3.4L17.2 9" fill="none" stroke="#fff" stroke-width="2.4" stroke-linecap="round" stroke-linejoin="round"/></g>
<text x="759" y="482" font-family="Inter, 'Segoe UI', Helvetica, Arial, sans-serif" font-size="14" font-weight="700" fill="#017CEE" text-anchor="start">④</text>
<text x="779" y="482" font-family="Inter, 'Segoe UI', Helvetica, Arial, sans-serif" font-size="14" font-weight="700" fill="#1f2937" text-anchor="start">Verify</text>
<text x="759" y="500" font-family="Inter, 'Segoe UI', Helvetica, Arial, sans-serif" font-size="11.5" font-weight="400" fill="#6b7280" text-anchor="start">each evidence quote</text>
<text x="759" y="516" font-family="Inter, 'Segoe UI', Helvetica, Arial, sans-serif" font-size="11.5" font-weight="400" fill="#6b7280" text-anchor="start">must match a real</text>
<text x="759" y="532" font-family="Inter, 'Segoe UI', Helvetica, Arial, sans-serif" font-size="11.5" font-weight="400" fill="#6b7280" text-anchor="start">tool output</text>
<rect x="895" y="420" width="115" height="126" rx="12" fill="#ffffff" stroke="#e5e7eb" stroke-width="1.6"/>
<g transform="translate(909,434) scale(1.0833333333333333)"><path d="M6 2h12a1.5 1.5 0 0 1 1.5 1.5V22l-7.5-4.6L4.5 22V3.5A1.5 1.5 0 0 1 6 2z" fill="#7c3aed"/></g>
<text x="909" y="482" font-family="Inter, 'Segoe UI', Helvetica, Arial, sans-serif" font-size="14" font-weight="700" fill="#017CEE" text-anchor="start">⑤</text>
<text x="929" y="482" font-family="Inter, 'Segoe UI', Helvetica, Arial, sans-serif" font-size="14" font-weight="700" fill="#1f2937" text-anchor="start">Remember</text>
<text x="909" y="500" font-family="Inter, 'Segoe UI', Helvetica, Arial, sans-serif" font-size="11.5" font-weight="400" fill="#6b7280" text-anchor="start">verified only</text>
<text x="909" y="516" font-family="Inter, 'Segoe UI', Helvetica, Arial, sans-serif" font-size="11.5" font-weight="400" fill="#6b7280" text-anchor="start">→ incident</text>
<text x="909" y="532" font-family="Inter, 'Segoe UI', Helvetica, Arial, sans-serif" font-size="11.5" font-weight="400" fill="#6b7280" text-anchor="start">memory</text>
<polyline points="395,482 413,482" fill="none" stroke="#374151" stroke-width="2" stroke-linejoin="round" marker-end="url(#data)"/>
<polyline points="585,482 603,482" fill="none" stroke="#374151" stroke-width="2" stroke-linejoin="round" marker-end="url(#data)"/>
<polyline points="725,482 743,482" fill="none" stroke="#374151" stroke-width="2" stroke-linejoin="round" marker-end="url(#data)"/>
<polyline points="875,482 893,482" fill="none" stroke="#374151" stroke-width="2" stroke-linejoin="round" marker-end="url(#data)"/>
<polyline points="235,314 212,314 212,478 233,478" fill="none" stroke="#374151" stroke-width="2" stroke-linejoin="round" marker-end="url(#data)"/>
<rect x="235" y="580" width="250" height="110" rx="12" fill="#ffffff" stroke="#e5e7eb" stroke-width="1.6"/>
<g transform="translate(249,594) scale(1.0833333333333333)"><ellipse cx="12" cy="5" rx="8.5" ry="3" fill="#0F80CC"/><path fill="#0F80CC" opacity=".85" d="M3.5 5v14c0 1.7 3.8 3 8.5 3s8.5-1.3 8.5-3V5c0 1.7-3.8 3-8.5 3S3.5 6.7 3.5 5z"/></g>
<text x="249" y="642" font-family="Inter, 'Segoe UI', Helvetica, Arial, sans-serif" font-size="14" font-weight="700" fill="#1f2937" text-anchor="start">Conversation memory</text>
<text x="249" y="660" font-family="Inter, 'Segoe UI', Helvetica, Arial, sans-serif" font-size="11.5" font-weight="400" fill="#6b7280" text-anchor="start">SQLite checkpointer: state saved after</text>
<text x="249" y="676" font-family="Inter, 'Segoe UI', Helvetica, Arial, sans-serif" font-size="11.5" font-weight="400" fill="#6b7280" text-anchor="start">every node, conversations resumable</text>
<polyline points="315,578 315,546" fill="none" stroke="#374151" stroke-width="2" stroke-linejoin="round" marker-end="url(#data)"/>
<rect x="330.8" y="550" width="82.4" height="17" rx="8" fill="#ffffff" opacity=".95"/>
<text x="372" y="563" font-family="Inter, 'Segoe UI', Helvetica, Arial, sans-serif" font-size="11" font-weight="600" fill="#374151" text-anchor="middle">checkpoints</text>
<line x1="215" y1="716" x2="1015" y2="716" stroke="#d1d5db" stroke-dasharray="3 5"/>
<text x="219" y="734" font-family="Inter, 'Segoe UI', Helvetica, Arial, sans-serif" font-size="10.5" font-weight="700" fill="#6b7280" text-anchor="start">MCP SERVERS  ·  READ-ONLY</text>
<rect x="235" y="752" width="182" height="128" rx="12" fill="#ffffff" stroke="#93c5fd" stroke-width="1.6"/>
<g transform="translate(249,766) scale(1.0833333333333333)"><path d="M8 2v5M16 2v5" stroke="#111827" stroke-width="2.2" stroke-linecap="round"/><path d="M5 7h14v4a7 7 0 0 1-14 0z" fill="#111827"/><path d="M12 18v4" stroke="#111827" stroke-width="2.2" stroke-linecap="round"/></g>
<g transform="translate(283,766) scale(1.0833333333333333)"><path fill="#017CEE" d="M17.195 16.822l4.002-4.102C23.55 10.308 23.934 5.154 24 .43a.396.396 0 0 0-.246-.373.392.392 0 0 0-.437.09l-6.495 6.658-4.102-4.003C10.309.45 5.154.066.43 0H.423a.397.397 0 0 0-.277.683l6.658 6.494-4.003 4.103C.45 13.692.065 18.846 0 23.57a.398.398 0 0 0 .683.282l6.494-6.657 3.934 3.837.17.165c2.41 2.353 7.565 2.737 12.288 2.803h.006a.397.397 0 0 0 .277-.683l-6.657-6.495zm-.409-9.476c.04.115.05.24.031.344-.17.96-1.593 2.538-4.304 3.87a.597.597 0 0 0-.08-.079c1.432-3.155 1.828-5.61 1.175-7.322l3.058 2.984.12.203zm-.131 9.44a.73.73 0 0 1-.347.031c-.96-.171-2.537-1.594-3.87-4.307a.656.656 0 0 0 .08-.078l-.001.001c3.155 1.432 5.61 1.83 7.324 1.174l-2.969 3.043M23.568.392a.05.05 0 0 1 .052-.011c.018.006.03.024.029.043-.065 4.655-.437 9.726-2.703 12.05-1.53 1.565-4.326 1.419-8.283-.377.006-.037.021-.07.02-.108 0-.044-.017-.082-.026-.123 2.83-1.39 4.315-3.037 4.506-4.115.057-.322-.009-.542-.102-.688l6.507-6.67V.392zM.393.43A.045.045 0 0 1 .382.38C.39.36.403.343.425.35c4.655.065 9.727.438 12.05 2.703l.002.002c1.56 1.527 1.415 4.323-.379 8.28-.033-.005-.062-.02-.097-.02h-.008c-.045.001-.084.019-.126.027-1.39-2.83-3.037-4.314-4.115-4.506-.323-.057-.542.01-.688.103L.393.43zm11.94 11.563a.331.331 0 0 1-.327.335H12a.332.332 0 0 1-.004-.661c.172.016.333.144.335.326h.002zm-5.12 4.661a.722.722 0 0 1-.03-.345c.17-.96 1.595-2.54 4.309-3.873.013.016.019.035.033.05.013.012.03.017.044.028-1.434 3.158-1.83 5.613-1.177 7.326l-3.041-2.967m-.006-9.659a.735.735 0 0 1 .345-.031c.961.17 2.54 1.594 3.871 4.306a.597.597 0 0 0-.079.08c-2.167-.983-4.007-1.484-5.498-1.484-.68 0-1.289.103-1.825.308L7.128 7.35M.43 23.607c-.018.018-.038.015-.052.01-.019-.007-.028-.021-.028-.043.065-4.654.437-9.725 2.703-12.049 1.527-1.565 4.325-1.419 8.286.378-.006.035-.02.067-.02.104 0 .043.018.083.026.124-2.831 1.391-4.317 3.04-4.51 4.117-.057.322.01.542.103.688L.43 23.607zm23.144.042c-4.655-.065-9.726-.437-12.05-2.703l-.005-.006c-1.56-1.526-1.412-4.322.383-8.279.033.005.064.02.098.02h.009c.043 0 .08-.018.122-.027 1.39 2.832 3.036 4.317 4.115 4.51.083.014.16.021.23.021a.776.776 0 0 0 .45-.133l6.68 6.516c.02.02.016.04.01.052a.042.042 0 0 1-.042.029z"/></g>
<text x="249" y="814" font-family="Inter, 'Segoe UI', Helvetica, Arial, sans-serif" font-size="14" font-weight="700" fill="#1f2937" text-anchor="start">Airflow MCP</text>
<text x="249" y="832" font-family="Inter, 'Segoe UI', Helvetica, Arial, sans-serif" font-size="11.5" font-weight="400" fill="#6b7280" text-anchor="start">dag runs · task instances</text>
<text x="249" y="848" font-family="Inter, 'Segoe UI', Helvetica, Arial, sans-serif" font-size="11.5" font-weight="400" fill="#6b7280" text-anchor="start">task logs (trimmed)</text>
<text x="249" y="864" font-family="Inter, 'Segoe UI', Helvetica, Arial, sans-serif" font-size="11.5" font-weight="400" fill="#6b7280" text-anchor="start">Viewer role</text>
<rect x="432" y="752" width="182" height="128" rx="12" fill="#ffffff" stroke="#d8b4fe" stroke-width="1.6"/>
<g transform="translate(446,766) scale(1.0833333333333333)"><path d="M8 2v5M16 2v5" stroke="#111827" stroke-width="2.2" stroke-linecap="round"/><path d="M5 7h14v4a7 7 0 0 1-14 0z" fill="#111827"/><path d="M12 18v4" stroke="#111827" stroke-width="2.2" stroke-linecap="round"/></g>
<g transform="translate(480,766) scale(1.0833333333333333)"><circle cx="10" cy="10" r="6.5" fill="none" stroke="#8C4FFF" stroke-width="3"/><line x1="15" y1="15" x2="21.5" y2="21.5" stroke="#8C4FFF" stroke-width="3.4" stroke-linecap="round"/></g>
<text x="446" y="814" font-family="Inter, 'Segoe UI', Helvetica, Arial, sans-serif" font-size="14" font-weight="700" fill="#1f2937" text-anchor="start">Athena MCP</text>
<text x="446" y="832" font-family="Inter, 'Segoe UI', Helvetica, Arial, sans-serif" font-size="11.5" font-weight="400" fill="#6b7280" text-anchor="start">tables · schemas · SQL</text>
<text x="446" y="848" font-family="Inter, 'Segoe UI', Helvetica, Arial, sans-serif" font-size="11.5" font-weight="400" fill="#6b7280" text-anchor="start">SQL guardrail + LIMIT</text>
<text x="446" y="864" font-family="Inter, 'Segoe UI', Helvetica, Arial, sans-serif" font-size="11.5" font-weight="400" fill="#6b7280" text-anchor="start">Glue job runs + logs</text>
<rect x="629" y="752" width="182" height="128" rx="12" fill="#ffffff" stroke="#d8b4fe" stroke-width="1.6"/>
<g transform="translate(643,766) scale(1.0833333333333333)"><path d="M8 2v5M16 2v5" stroke="#111827" stroke-width="2.2" stroke-linecap="round"/><path d="M5 7h14v4a7 7 0 0 1-14 0z" fill="#111827"/><path d="M12 18v4" stroke="#111827" stroke-width="2.2" stroke-linecap="round"/></g>
<g transform="translate(677,766) scale(1.0833333333333333)"><circle cx="9" cy="12" r="6" fill="#FFDE2D" opacity=".95"/><circle cx="15" cy="12" r="6" fill="#327EFF" opacity=".85"/><circle cx="12" cy="12" r="3" fill="#FF6446"/></g>
<text x="643" y="814" font-family="Inter, 'Segoe UI', Helvetica, Arial, sans-serif" font-size="14" font-weight="700" fill="#1f2937" text-anchor="start">Knowledge MCP</text>
<text x="643" y="832" font-family="Inter, 'Segoe UI', Helvetica, Arial, sans-serif" font-size="11.5" font-weight="400" fill="#6b7280" text-anchor="start">search_runbooks (RAG)</text>
<text x="643" y="848" font-family="Inter, 'Segoe UI', Helvetica, Arial, sans-serif" font-size="11.5" font-weight="400" fill="#6b7280" text-anchor="start">past incidents</text>
<text x="643" y="864" font-family="Inter, 'Segoe UI', Helvetica, Arial, sans-serif" font-size="11.5" font-weight="400" fill="#6b7280" text-anchor="start">record (graph only)</text>
<rect x="826" y="752" width="184" height="128" rx="12" fill="#ffffff" stroke="#86efac" stroke-width="1.6"/>
<g transform="translate(840,766) scale(1.0833333333333333)"><path d="M8 2v5M16 2v5" stroke="#111827" stroke-width="2.2" stroke-linecap="round"/><path d="M5 7h14v4a7 7 0 0 1-14 0z" fill="#111827"/><path d="M12 18v4" stroke="#111827" stroke-width="2.2" stroke-linecap="round"/></g>
<g transform="translate(874,766) scale(1.0833333333333333)"><rect x="1.5" y="3" width="21" height="18" rx="3" fill="#111827"/><path d="M6 9l3.5 3L6 15" fill="none" stroke="#34d399" stroke-width="2" stroke-linecap="round" stroke-linejoin="round"/><line x1="11.5" y1="15.5" x2="17" y2="15.5" stroke="#e5e7eb" stroke-width="2" stroke-linecap="round"/></g>
<text x="840" y="814" font-family="Inter, 'Segoe UI', Helvetica, Arial, sans-serif" font-size="14" font-weight="700" fill="#1f2937" text-anchor="start">Ops MCP</text>
<text x="840" y="832" font-family="Inter, 'Segoe UI', Helvetica, Arial, sans-serif" font-size="11.5" font-weight="400" fill="#6b7280" text-anchor="start">live Spark lake (DuckDB)</text>
<text x="840" y="848" font-family="Inter, 'Segoe UI', Helvetica, Arial, sans-serif" font-size="11.5" font-weight="400" fill="#6b7280" text-anchor="start">containers + logs</text>
<text x="840" y="864" font-family="Inter, 'Segoe UI', Helvetica, Arial, sans-serif" font-size="11.5" font-weight="400" fill="#6b7280" text-anchor="start">dashboard · health checks</text>
<polyline points="500,544 500,702 405,702 405,750" fill="none" stroke="#374151" stroke-width="2" stroke-linejoin="round" marker-end="url(#data)"/>
<polyline points="500,702 523,702 523,750" fill="none" stroke="#374151" stroke-width="2" stroke-linejoin="round" marker-end="url(#data)"/>
<polyline points="523,702 720,702 720,750" fill="none" stroke="#374151" stroke-width="2" stroke-linejoin="round" marker-end="url(#data)"/>
<rect x="522.2" y="690" width="197.6" height="17" rx="8" fill="#ffffff" opacity=".95"/>
<text x="621" y="703" font-family="Inter, 'Segoe UI', Helvetica, Arial, sans-serif" font-size="11" font-weight="600" fill="#374151" text-anchor="middle">tool calls  ·  MCP over stdio</text>
<polyline points="720,702 917,702 917,750" fill="none" stroke="#374151" stroke-width="2" stroke-linejoin="round" marker-end="url(#data)"/>
<polyline points="952,544 952,600 800,600 800,750" fill="none" stroke="#017CEE" stroke-width="2" stroke-dasharray="7 5" stroke-linejoin="round" marker-end="url(#ctrl)"/>
<rect x="844.4" y="588" width="63.2" height="17" rx="8" fill="#ffffff" opacity=".95"/>
<text x="876" y="601" font-family="Inter, 'Segoe UI', Helvetica, Arial, sans-serif" font-size="11" font-weight="600" fill="#017CEE" text-anchor="middle">⑤ record</text>
<polyline points="326,880 326,906 1046,906 1046,340 1083,340" fill="none" stroke="#374151" stroke-width="2" stroke-linejoin="round" marker-end="url(#data)"/>
<rect x="445.2" y="894" width="229.6" height="17" rx="8" fill="#ffffff" opacity=".95"/>
<text x="560" y="907" font-family="Inter, 'Segoe UI', Helvetica, Arial, sans-serif" font-size="11" font-weight="600" fill="#374151" text-anchor="middle">REST /api/v2 (same Docker network)</text>
<polyline points="523,880 523,892 1036,892 1036,560 1083,560" fill="none" stroke="#374151" stroke-width="2" stroke-linejoin="round" marker-end="url(#data)"/>
<rect x="630.0" y="880" width="140.0" height="17" rx="8" fill="#ffffff" opacity=".95"/>
<text x="700" y="893" font-family="Inter, 'Segoe UI', Helvetica, Arial, sans-serif" font-size="11" font-weight="600" fill="#374151" text-anchor="middle">boto3, read-only IAM</text>
<polyline points="917,880 917,922 1054,922 1054,396 1083,396" fill="none" stroke="#374151" stroke-width="2" stroke-linejoin="round" marker-end="url(#data)"/>
<rect x="435.2" y="910" width="325.6" height="17" rx="8" fill="#ffffff" opacity=".95"/>
<text x="598" y="923" font-family="Inter, 'Segoe UI', Helvetica, Arial, sans-serif" font-size="11" font-weight="600" fill="#374151" text-anchor="middle">lake (ro) · Docker proxy (reads only) · dashboard</text>
<line x1="215" y1="946" x2="1015" y2="946" stroke="#d1d5db" stroke-dasharray="3 5"/>
<text x="219" y="964" font-family="Inter, 'Segoe UI', Helvetica, Arial, sans-serif" font-size="10.5" font-weight="700" fill="#6b7280" text-anchor="start">KNOWLEDGE BASE  ·  RAG</text>
<rect x="235" y="982" width="205" height="126" rx="12" fill="#ffffff" stroke="#e5e7eb" stroke-width="1.6"/>
<g transform="translate(249,996) scale(1.0833333333333333)"><path d="M3 4.5A2.5 2.5 0 0 1 5.5 2H20v17H5.5A2.5 2.5 0 0 0 3 21.5z" fill="#7c3aed"/><path d="M3 21.5A2.5 2.5 0 0 1 5.5 19H20v3H5.5A2.5 2.5 0 0 1 3 21.5z" fill="#c4b5fd"/></g>
<text x="249" y="1044" font-family="Inter, 'Segoe UI', Helvetica, Arial, sans-serif" font-size="14" font-weight="700" fill="#1f2937" text-anchor="start">Runbooks</text>
<text x="249" y="1062" font-family="Inter, 'Segoe UI', Helvetica, Arial, sans-serif" font-size="11.5" font-weight="400" fill="#6b7280" text-anchor="start">knowledge/*.md: runbooks,</text>
<text x="249" y="1078" font-family="Inter, 'Segoe UI', Helvetica, Arial, sans-serif" font-size="11.5" font-weight="400" fill="#6b7280" text-anchor="start">architecture, explainers</text>
<text x="249" y="1094" font-family="Inter, 'Segoe UI', Helvetica, Arial, sans-serif" font-size="11.5" font-weight="400" fill="#6b7280" text-anchor="start">for every technology</text>
<rect x="470" y="982" width="255" height="126" rx="12" fill="#ffffff" stroke="#e5e7eb" stroke-width="1.6"/>
<g transform="translate(484,996) scale(1.0833333333333333)"><path fill="#3776AB" d="M14.25.18l.9.2.73.26.59.3.45.32.34.34.25.34.16.33.1.3.04.26.02.2-.01.13V8.5l-.05.63-.13.55-.21.46-.26.38-.3.31-.33.25-.35.19-.35.14-.33.1-.3.07-.26.04-.21.02H8.77l-.69.05-.59.14-.5.22-.41.27-.33.32-.27.35-.2.36-.15.37-.1.35-.07.32-.04.27-.02.21v3.06H3.17l-.21-.03-.28-.07-.32-.12-.35-.18-.36-.26-.36-.36-.35-.46-.32-.59-.28-.73-.21-.88-.14-1.05-.05-1.23.06-1.22.16-1.04.24-.87.32-.71.36-.57.4-.44.42-.33.42-.24.4-.16.36-.1.32-.05.24-.01h.16l.06.01h8.16v-.83H6.18l-.01-2.75-.02-.37.05-.34.11-.31.17-.28.25-.26.31-.23.38-.2.44-.18.51-.15.58-.12.64-.1.71-.06.77-.04.84-.02 1.27.05zm-6.3 1.98l-.23.33-.08.41.08.41.23.34.33.22.41.09.41-.09.33-.22.23-.34.08-.41-.08-.41-.23-.33-.33-.22-.41-.09-.41.09zm13.09 3.95l.28.06.32.12.35.18.36.27.36.35.35.47.32.59.28.73.21.88.14 1.04.05 1.23-.06 1.23-.16 1.04-.24.86-.32.71-.36.57-.4.45-.42.33-.42.24-.4.16-.36.09-.32.05-.24.02-.16-.01h-8.22v.82h5.84l.01 2.76.02.36-.05.34-.11.31-.17.29-.25.25-.31.24-.38.2-.44.17-.51.15-.58.13-.64.09-.71.07-.77.04-.84.01-1.27-.04-1.07-.14-.9-.2-.73-.25-.59-.3-.45-.33-.34-.34-.25-.34-.16-.33-.1-.3-.04-.25-.02-.2.01-.13v-5.34l.05-.64.13-.54.21-.46.26-.38.3-.32.33-.24.35-.2.35-.14.33-.1.3-.06.26-.04.21-.02.13-.01h5.84l.69-.05.59-.14.5-.21.41-.28.33-.32.27-.35.2-.36.15-.36.1-.35.07-.32.04-.28.02-.21V6.07h2.09l.14.01zm-6.47 14.25l-.23.33-.08.41.08.41.23.33.33.23.41.08.41-.08.33-.23.23-.33.08-.41-.08-.41-.23-.33-.33-.23-.41-.08-.41.08z"/></g>
<text x="484" y="1044" font-family="Inter, 'Segoe UI', Helvetica, Arial, sans-serif" font-size="14" font-weight="700" fill="#1f2937" text-anchor="start">Ingest</text>
<text x="484" y="1062" font-family="Inter, 'Segoe UI', Helvetica, Arial, sans-serif" font-size="11.5" font-weight="400" fill="#6b7280" text-anchor="start">run when docs change: split by</text>
<text x="484" y="1078" font-family="Inter, 'Segoe UI', Helvetica, Arial, sans-serif" font-size="11.5" font-weight="400" fill="#6b7280" text-anchor="start">## section, embed with a local</text>
<text x="484" y="1094" font-family="Inter, 'Segoe UI', Helvetica, Arial, sans-serif" font-size="11.5" font-weight="400" fill="#6b7280" text-anchor="start">model, rebuild the index</text>
<rect x="755" y="982" width="255" height="126" rx="12" fill="#ffffff" stroke="#e5e7eb" stroke-width="1.6"/>
<g transform="translate(769,996) scale(1.0833333333333333)"><circle cx="9" cy="12" r="6" fill="#FFDE2D" opacity=".95"/><circle cx="15" cy="12" r="6" fill="#327EFF" opacity=".85"/><circle cx="12" cy="12" r="3" fill="#FF6446"/></g>
<text x="769" y="1044" font-family="Inter, 'Segoe UI', Helvetica, Arial, sans-serif" font-size="14" font-weight="700" fill="#1f2937" text-anchor="start">Chroma vector store</text>
<text x="769" y="1062" font-family="Inter, 'Segoe UI', Helvetica, Arial, sans-serif" font-size="11.5" font-weight="400" fill="#6b7280" text-anchor="start">runbooks: sections to search</text>
<text x="769" y="1078" font-family="Inter, 'Segoe UI', Helvetica, Arial, sans-serif" font-size="11.5" font-weight="400" fill="#6b7280" text-anchor="start">incidents: verified diagnoses</text>
<text x="769" y="1094" font-family="Inter, 'Segoe UI', Helvetica, Arial, sans-serif" font-size="11.5" font-weight="400" fill="#6b7280" text-anchor="start">(kept across re-ingests)</text>
<polyline points="440,1044 468,1044" fill="none" stroke="#6b7280" stroke-width="2" stroke-dasharray="2 4" stroke-linejoin="round" marker-end="url(#offline)"/>
<polyline points="725,1044 753,1044" fill="none" stroke="#6b7280" stroke-width="2" stroke-dasharray="2 4" stroke-linejoin="round" marker-end="url(#offline)"/>
<polyline points="780,880 780,980" fill="none" stroke="#eef2ff" stroke-width="9" stroke-linejoin="round"/>
<polyline points="780,880 780,980" fill="none" stroke="#374151" stroke-width="2" stroke-linejoin="round" marker-end="url(#data)"/>
<rect x="726.0" y="950" width="108.0" height="17" rx="8" fill="#ffffff" opacity=".95"/>
<text x="780" y="963" font-family="Inter, 'Segoe UI', Helvetica, Arial, sans-serif" font-size="11" font-weight="600" fill="#374151" text-anchor="middle">search · record</text>
<rect x="1085" y="96" width="290" height="126" rx="12" fill="#ffffff" stroke="#fdba74" stroke-width="1.6"/>
<g transform="translate(1099,110) scale(1.0833333333333333)"><path d="M12 1.5l2.2 7.3 7.3 2.2-7.3 2.2L12 22.5l-2.2-7.3L2.5 13l7.3-2.2z" fill="#D97757"/></g>
<text x="1099" y="158" font-family="Inter, 'Segoe UI', Helvetica, Arial, sans-serif" font-size="14" font-weight="700" fill="#1f2937" text-anchor="start">Claude API</text>
<text x="1099" y="176" font-family="Inter, 'Segoe UI', Helvetica, Arial, sans-serif" font-size="11.5" font-weight="400" fill="#6b7280" text-anchor="start">Opus 5.5: agent loop + diagnosis</text>
<text x="1099" y="192" font-family="Inter, 'Segoe UI', Helvetica, Arial, sans-serif" font-size="11.5" font-weight="400" fill="#6b7280" text-anchor="start">Haiku 4.5: input guardrail</text>
<text x="1099" y="208" font-family="Inter, 'Segoe UI', Helvetica, Arial, sans-serif" font-size="11.5" font-weight="400" fill="#6b7280" text-anchor="start">(or OpenAI: LLM_MODEL=gpt-*)</text>
<polyline points="1010,314 1052,314 1052,158 1083,158" fill="none" stroke="#c2410c" stroke-width="2" stroke-dasharray="7 5" stroke-linejoin="round" marker-end="url(#model)"/>
<text x="1046" y="254" font-family="Inter, 'Segoe UI', Helvetica, Arial, sans-serif" font-size="11" font-weight="600" fill="#c2410c" text-anchor="end">LLM calls</text>
<rect x="1085" y="296" width="290" height="126" rx="12" fill="#ffffff" stroke="#93c5fd" stroke-width="1.6"/>
<g transform="translate(1099,310) scale(1.0833333333333333)"><path fill="#017CEE" d="M17.195 16.822l4.002-4.102C23.55 10.308 23.934 5.154 24 .43a.396.396 0 0 0-.246-.373.392.392 0 0 0-.437.09l-6.495 6.658-4.102-4.003C10.309.45 5.154.066.43 0H.423a.397.397 0 0 0-.277.683l6.658 6.494-4.003 4.103C.45 13.692.065 18.846 0 23.57a.398.398 0 0 0 .683.282l6.494-6.657 3.934 3.837.17.165c2.41 2.353 7.565 2.737 12.288 2.803h.006a.397.397 0 0 0 .277-.683l-6.657-6.495zm-.409-9.476c.04.115.05.24.031.344-.17.96-1.593 2.538-4.304 3.87a.597.597 0 0 0-.08-.079c1.432-3.155 1.828-5.61 1.175-7.322l3.058 2.984.12.203zm-.131 9.44a.73.73 0 0 1-.347.031c-.96-.171-2.537-1.594-3.87-4.307a.656.656 0 0 0 .08-.078l-.001.001c3.155 1.432 5.61 1.83 7.324 1.174l-2.969 3.043M23.568.392a.05.05 0 0 1 .052-.011c.018.006.03.024.029.043-.065 4.655-.437 9.726-2.703 12.05-1.53 1.565-4.326 1.419-8.283-.377.006-.037.021-.07.02-.108 0-.044-.017-.082-.026-.123 2.83-1.39 4.315-3.037 4.506-4.115.057-.322-.009-.542-.102-.688l6.507-6.67V.392zM.393.43A.045.045 0 0 1 .382.38C.39.36.403.343.425.35c4.655.065 9.727.438 12.05 2.703l.002.002c1.56 1.527 1.415 4.323-.379 8.28-.033-.005-.062-.02-.097-.02h-.008c-.045.001-.084.019-.126.027-1.39-2.83-3.037-4.314-4.115-4.506-.323-.057-.542.01-.688.103L.393.43zm11.94 11.563a.331.331 0 0 1-.327.335H12a.332.332 0 0 1-.004-.661c.172.016.333.144.335.326h.002zm-5.12 4.661a.722.722 0 0 1-.03-.345c.17-.96 1.595-2.54 4.309-3.873.013.016.019.035.033.05.013.012.03.017.044.028-1.434 3.158-1.83 5.613-1.177 7.326l-3.041-2.967m-.006-9.659a.735.735 0 0 1 .345-.031c.961.17 2.54 1.594 3.871 4.306a.597.597 0 0 0-.079.08c-2.167-.983-4.007-1.484-5.498-1.484-.68 0-1.289.103-1.825.308L7.128 7.35M.43 23.607c-.018.018-.038.015-.052.01-.019-.007-.028-.021-.028-.043.065-4.654.437-9.725 2.703-12.049 1.527-1.565 4.325-1.419 8.286.378-.006.035-.02.067-.02.104 0 .043.018.083.026.124-2.831 1.391-4.317 3.04-4.51 4.117-.057.322.01.542.103.688L.43 23.607zm23.144.042c-4.655-.065-9.726-.437-12.05-2.703l-.005-.006c-1.56-1.526-1.412-4.322.383-8.279.033.005.064.02.098.02h.009c.043 0 .08-.018.122-.027 1.39 2.832 3.036 4.317 4.115 4.51.083.014.16.021.23.021a.776.776 0 0 0 .45-.133l6.68 6.516c.02.02.016.04.01.052a.042.042 0 0 1-.042.029z"/></g>
<g transform="translate(1133,310) scale(1.0833333333333333)"><path fill="#2496ED" d="M13.983 11.078h2.119a.186.186 0 00.186-.185V9.006a.186.186 0 00-.186-.186h-2.119a.185.185 0 00-.185.185v1.888c0 .102.083.185.185.185m-2.954-5.43h2.118a.186.186 0 00.186-.186V3.574a.186.186 0 00-.186-.185h-2.118a.185.185 0 00-.185.185v1.888c0 .102.082.185.185.185m0 2.716h2.118a.187.187 0 00.186-.186V6.29a.186.186 0 00-.186-.185h-2.118a.185.185 0 00-.185.185v1.887c0 .102.082.185.185.186m-2.93 0h2.12a.186.186 0 00.184-.186V6.29a.185.185 0 00-.185-.185H8.1a.185.185 0 00-.185.185v1.887c0 .102.083.185.185.186m-2.964 0h2.119a.186.186 0 00.185-.186V6.29a.185.185 0 00-.185-.185H5.136a.186.186 0 00-.186.185v1.887c0 .102.084.185.186.186m5.893 2.715h2.118a.186.186 0 00.186-.185V9.006a.186.186 0 00-.186-.186h-2.118a.185.185 0 00-.185.185v1.888c0 .102.082.185.185.185m-2.93 0h2.12a.185.185 0 00.184-.185V9.006a.185.185 0 00-.184-.186h-2.12a.185.185 0 00-.184.185v1.888c0 .102.083.185.185.185m-2.964 0h2.119a.185.185 0 00.185-.185V9.006a.185.185 0 00-.184-.186h-2.12a.186.186 0 00-.186.186v1.887c0 .102.084.185.186.185m-2.92 0h2.12a.185.185 0 00.184-.185V9.006a.185.185 0 00-.184-.186h-2.12a.185.185 0 00-.184.185v1.888c0 .102.082.185.185.185M23.763 9.89c-.065-.051-.672-.51-1.954-.51-.338.001-.676.03-1.01.087-.248-1.7-1.653-2.53-1.716-2.566l-.344-.199-.226.327c-.284.438-.49.922-.612 1.43-.23.97-.09 1.882.403 2.661-.595.332-1.55.413-1.744.42H.751a.751.751 0 00-.75.748 11.376 11.376 0 00.692 4.062c.545 1.428 1.355 2.48 2.41 3.124 1.18.723 3.1 1.137 5.275 1.137.983.003 1.963-.086 2.93-.266a12.248 12.248 0 003.823-1.389c.98-.567 1.86-1.288 2.61-2.136 1.252-1.418 1.998-2.997 2.553-4.4h.221c1.372 0 2.215-.549 2.68-1.009.309-.293.55-.65.707-1.046l.098-.288Z"/></g>
<text x="1099" y="358" font-family="Inter, 'Segoe UI', Helvetica, Arial, sans-serif" font-size="14" font-weight="700" fill="#1f2937" text-anchor="start">Pipeline host</text>
<text x="1099" y="376" font-family="Inter, 'Segoe UI', Helvetica, Arial, sans-serif" font-size="11.5" font-weight="400" fill="#6b7280" text-anchor="start">Airflow 3: DAG runs, task logs</text>
<text x="1099" y="392" font-family="Inter, 'Segoe UI', Helvetica, Arial, sans-serif" font-size="11.5" font-weight="400" fill="#6b7280" text-anchor="start">Spark local lake (mounted read-only)</text>
<text x="1099" y="408" font-family="Inter, 'Segoe UI', Helvetica, Arial, sans-serif" font-size="11.5" font-weight="400" fill="#6b7280" text-anchor="start">containers + dashboard</text>
<rect x="1085" y="496" width="290" height="110" rx="12" fill="#ffffff" stroke="#d8b4fe" stroke-width="1.6"/>
<g transform="translate(1099,510) scale(1.0833333333333333)"><circle cx="10" cy="10" r="6.5" fill="none" stroke="#8C4FFF" stroke-width="3"/><line x1="15" y1="15" x2="21.5" y2="21.5" stroke="#8C4FFF" stroke-width="3.4" stroke-linecap="round"/></g>
<g transform="translate(1133,510) scale(1.0833333333333333)"><rect x="4" y="3" width="15" height="18" rx="2" fill="#8C4FFF"/><rect x="7" y="7" width="9" height="2" rx="1" fill="#fff"/><rect x="7" y="11" width="9" height="2" rx="1" fill="#fff"/><rect x="7" y="15" width="6" height="2" rx="1" fill="#fff"/></g>
<text x="1099" y="558" font-family="Inter, 'Segoe UI', Helvetica, Arial, sans-serif" font-size="14" font-weight="700" fill="#1f2937" text-anchor="start">Athena + Glue Catalog</text>
<text x="1099" y="576" font-family="Inter, 'Segoe UI', Helvetica, Arial, sans-serif" font-size="11.5" font-weight="400" fill="#6b7280" text-anchor="start">SQL over raw &amp; curated tables</text>
<text x="1099" y="592" font-family="Inter, 'Segoe UI', Helvetica, Arial, sans-serif" font-size="11.5" font-weight="400" fill="#6b7280" text-anchor="start">workgroup: 1 GB scan cap</text>
<rect x="1085" y="644" width="290" height="94" rx="12" fill="#ffffff" stroke="#c5e1a5" stroke-width="1.6"/>
<g transform="translate(1099,658) scale(1.0833333333333333)"><path fill="#7AA116" d="M3 6.2C3 4.4 7 3 12 3s9 1.4 9 3.2l-2.2 13.3C18.6 20.9 15.6 22 12 22s-6.6-1.1-6.8-2.5z"/><ellipse cx="12" cy="6.2" rx="7.2" ry="1.8" fill="#fff" opacity=".55"/></g>
<text x="1099" y="706" font-family="Inter, 'Segoe UI', Helvetica, Arial, sans-serif" font-size="14" font-weight="700" fill="#1f2937" text-anchor="start">S3 data lake</text>
<text x="1099" y="724" font-family="Inter, 'Segoe UI', Helvetica, Arial, sans-serif" font-size="11.5" font-weight="400" fill="#6b7280" text-anchor="start">raw/ and curated/ Parquet</text>
<polyline points="1230,604 1230,642" fill="none" stroke="#374151" stroke-width="2" stroke-linejoin="round" marker-end="url(#data)"/>
<rect x="1248.0" y="612" width="44.0" height="17" rx="8" fill="#ffffff" opacity=".95"/>
<text x="1270" y="625" font-family="Inter, 'Segoe UI', Helvetica, Arial, sans-serif" font-size="11" font-weight="600" fill="#374151" text-anchor="middle">reads</text>
<g transform="translate(1085,768) scale(1.0833333333333333)"><rect x="4" y="10.5" width="16" height="11" rx="2.5" fill="#6d28d9"/><path d="M8 10.5V7a4 4 0 0 1 8 0v3.5" fill="none" stroke="#6d28d9" stroke-width="2.4"/></g>
<text x="1118" y="786" font-family="Inter, 'Segoe UI', Helvetica, Arial, sans-serif" font-size="11.5" font-weight="600" fill="#6d28d9" text-anchor="start">IAM user pipeline-copilot-agent:</text>
<text x="1118" y="803" font-family="Inter, 'Segoe UI', Helvetica, Arial, sans-serif" font-size="11.5" font-weight="400" fill="#6b7280" text-anchor="start">read-only, no writes to data or catalog</text>
<rect x="200" y="1154" width="1200" height="56" rx="14" fill="#ffffff" stroke="#e5e7eb"/>
<text x="222" y="1187" font-family="Inter, 'Segoe UI', Helvetica, Arial, sans-serif" font-size="10.5" font-weight="700" fill="#6b7280" text-anchor="start">LEGEND</text>
<line x1="290" y1="1182" x2="330" y2="1182" stroke="#374151" stroke-width="2" marker-end="url(#data)"/>
<text x="340" y="1186" font-family="Inter, 'Segoe UI', Helvetica, Arial, sans-serif" font-size="12.5" font-weight="400" fill="#1f2937" text-anchor="start">request / data</text>
<line x1="450" y1="1182" x2="490" y2="1182" stroke="#c2410c" stroke-width="2" stroke-dasharray="7 5" marker-end="url(#model)"/>
<text x="500" y="1186" font-family="Inter, 'Segoe UI', Helvetica, Arial, sans-serif" font-size="12.5" font-weight="400" fill="#1f2937" text-anchor="start">LLM call</text>
<line x1="580" y1="1182" x2="620" y2="1182" stroke="#017CEE" stroke-width="2" stroke-dasharray="7 5" marker-end="url(#ctrl)"/>
<text x="630" y="1186" font-family="Inter, 'Segoe UI', Helvetica, Arial, sans-serif" font-size="12.5" font-weight="400" fill="#1f2937" text-anchor="start">graph-only write (the model never writes memory)</text>
<line x1="935" y1="1182" x2="975" y2="1182" stroke="#6b7280" stroke-width="2" stroke-dasharray="2 4" marker-end="url(#offline)"/>
<text x="985" y="1186" font-family="Inter, 'Segoe UI', Helvetica, Arial, sans-serif" font-size="12.5" font-weight="400" fill="#1f2937" text-anchor="start">offline (when docs change)</text>
<text x="1385" y="1186" font-family="Inter, 'Segoe UI', Helvetica, Arial, sans-serif" font-size="11.5" font-weight="400" fill="#6b7280" text-anchor="end">① – ⑤ = graph order</text>
</svg>